<?xml version="1.0" encoding="UTF-8"?>
<svg width="144px" height="35px" viewBox="0 0 144 35" version="1.1" xmlns="http://www.w3.org/2000/svg" xmlns:xlink="http://www.w3.org/1999/xlink">
    <!-- Generator: sketchtool 56.3 (101010) - https://sketch.com -->
    <title>0582F6A9-F994-4A17-9563-F38290FEDC44</title>
    <desc>Created with sketchtool.</desc>
    <defs>
        <path d="M50.6117725,23.5293534 L52.5600146,23.5293534 L55.4447803,32.0195878 L58.3090381,23.5293534 L60.2367725,23.5293534 L60.2367725,33.5713456 L58.9447803,33.5713456 L58.9447803,27.6445878 C58.9447803,27.4395086 58.9493375,27.0999938 58.9584521,26.6260331 C58.9675668,26.1520724 58.972124,25.6439395 58.972124,25.101619 L56.1078662,33.5713456 L54.7611865,33.5713456 L51.8764209,25.101619 L51.8764209,25.4092362 C51.8764209,25.6553312 51.8821175,26.0301647 51.8935107,26.5337479 C51.904904,27.0373312 51.9106006,27.4076074 51.9106006,27.6445878 L51.9106006,33.5713456 L50.6117725,33.5713456 L50.6117725,23.5293534 Z M67.4623584,29.4561112 L65.9379443,25.0195878 L64.3178271,29.4561112 L67.4623584,29.4561112 Z M65.2270068,23.5293534 L66.7650928,23.5293534 L70.4086475,33.5713456 L68.9184131,33.5713456 L67.8998584,30.5635331 L63.9281787,30.5635331 L62.8412646,33.5713456 L61.4467334,33.5713456 L65.2270068,23.5293534 Z M76.3148975,28.1299393 C76.9529215,28.1299393 77.4576365,28.0023365 77.8290576,27.7471268 C78.2004787,27.4919172 78.3861865,27.0316354 78.3861865,26.3662675 C78.3861865,25.6507691 78.1264235,25.1631438 77.6068896,24.9033768 C77.3288935,24.7666574 76.9574779,24.6982987 76.4926318,24.6982987 L73.1703662,24.6982987 L73.1703662,28.1299393 L76.3148975,28.1299393 Z M71.8100146,23.5293534 L76.4584521,23.5293534 C77.224081,23.5293534 77.8552596,23.6410059 78.3520068,23.8643143 C79.2953709,24.2927019 79.7670459,25.0833841 79.7670459,26.2363847 C79.7670459,26.8379502 79.6428609,27.3301327 79.3944873,27.7129472 C79.1461137,28.0957616 78.7986237,28.4033757 78.3520068,28.6357987 C78.7439359,28.7953047 79.0390176,29.004938 79.2372607,29.264705 C79.4355039,29.5244719 79.5460171,29.9460172 79.5688037,30.5293534 L79.6166553,31.8760331 C79.6303272,32.2588475 79.6622279,32.5436754 79.7123584,32.7305253 C79.7943901,33.0495373 79.9402219,33.2546134 80.1498584,33.3457597 L80.1498584,33.5713456 L78.4818896,33.5713456 C78.4363165,33.4847566 78.3998585,33.3731041 78.3725146,33.2363847 C78.3451708,33.0996652 78.3223845,32.8353449 78.3041553,32.4434159 L78.222124,30.7686112 C78.1902228,30.1123579 77.9464102,29.6725837 77.4906787,29.4492753 C77.2309118,29.3262278 76.8230383,29.264705 76.2670459,29.264705 L73.1703662,29.264705 L73.1703662,33.5713456 L71.8100146,33.5713456 L71.8100146,23.5293534 Z M81.7563037,23.5293534 L83.0824756,23.5293534 L83.0824756,28.4238847 L87.9770068,23.5293534 L89.8568896,23.5293534 L85.6801318,27.5762284 L89.9731006,33.5713456 L88.2025928,33.5713456 L84.6889209,28.5332597 L83.0824756,30.0713456 L83.0824756,33.5713456 L81.7563037,33.5713456 L81.7563037,23.5293534 Z M91.2240771,23.5293534 L98.5453662,23.5293534 L98.5453662,24.7598222 L92.550249,24.7598222 L92.550249,27.8086503 L98.0941943,27.8086503 L98.0941943,28.9707597 L92.550249,28.9707597 L92.550249,32.3750565 L98.6479053,32.3750565 L98.6479053,33.5713456 L91.2240771,33.5713456 L91.2240771,23.5293534 Z M107.739702,23.5293534 L107.739702,24.7256425 L104.355913,24.7256425 L104.355913,33.5713456 L102.975054,33.5713456 L102.975054,24.7256425 L99.5912646,24.7256425 L99.5912646,23.5293534 L107.739702,23.5293534 Z M109.113726,23.5293534 L116.435015,23.5293534 L116.435015,24.7598222 L110.439897,24.7598222 L110.439897,27.8086503 L115.983843,27.8086503 L115.983843,28.9707597 L110.439897,28.9707597 L110.439897,32.3750565 L116.537554,32.3750565 L116.537554,33.5713456 L109.113726,33.5713456 L109.113726,23.5293534 Z M122.990679,28.1299393 C123.628703,28.1299393 124.133418,28.0023365 124.504839,27.7471268 C124.87626,27.4919172 125.061968,27.0316354 125.061968,26.3662675 C125.061968,25.6507691 124.802205,25.1631438 124.282671,24.9033768 C124.004675,24.7666574 123.633259,24.6982987 123.168413,24.6982987 L119.846147,24.6982987 L119.846147,28.1299393 L122.990679,28.1299393 Z M118.485796,23.5293534 L123.134233,23.5293534 C123.899862,23.5293534 124.531041,23.6410059 125.027788,23.8643143 C125.971152,24.2927019 126.442827,25.0833841 126.442827,26.2363847 C126.442827,26.8379502 126.318642,27.3301327 126.070269,27.7129472 C125.821895,28.0957616 125.474405,28.4033757 125.027788,28.6357987 C125.419717,28.7953047 125.714799,29.004938 125.913042,29.264705 C126.111285,29.5244719 126.221798,29.9460172 126.244585,30.5293534 L126.292437,31.8760331 C126.306108,32.2588475 126.338009,32.5436754 126.38814,32.7305253 C126.470171,33.0495373 126.616003,33.2546134 126.82564,33.3457597 L126.82564,33.5713456 L125.157671,33.5713456 C125.112098,33.4847566 125.07564,33.3731041 125.048296,33.2363847 C125.020952,33.0996652 124.998166,32.8353449 124.979937,32.4434159 L124.897905,30.7686112 C124.866004,30.1123579 124.622191,29.6725837 124.16646,29.4492753 C123.906693,29.3262278 123.49882,29.264705 122.942827,29.264705 L119.846147,29.264705 L119.846147,33.5713456 L118.485796,33.5713456 L118.485796,23.5293534 Z" id="path-1"></path>
    </defs>
    <g id="***ALF" stroke="none" stroke-width="1" fill="none" fill-rule="evenodd">
        <g id="Landing-page" transform="translate(-30.000000, -12.000000)" fill-rule="nonzero">
            <g id="topnav-/-login">
                <g id="Group" transform="translate(30.000000, 12.000000)">
                    <g id="BrivityMarketer">
                        <path d="M58.5673389,0.103183697 C59.3352881,0.101808429 60.1004346,0.175724138 60.8515674,0.327739464 C61.5368359,0.458835249 62.1912744,0.718237548 62.7798486,1.092 C63.3333887,1.45042146 63.7916357,1.93714943 64.1139502,2.51034483 C64.4698975,3.1867433 64.643667,3.94263602 64.617041,4.70550192 C64.6184424,5.19362452 64.5371631,5.67756322 64.3788086,6.13918774 C64.2260596,6.59383908 63.9976367,7.01920307 63.7061523,7.3999387 C63.4188721,7.77509579 63.071333,8.10004598 62.6761475,8.36084291 C62.2711523,8.62721839 61.8171094,8.81409962 61.3420459,8.91311877 L61.3420459,8.96472031 C62.464541,9.07489655 63.5043555,9.60625287 64.2484814,10.4500077 C64.9813965,11.3104981 65.3681738,12.4122605 65.3331396,13.5391264 C65.3303369,13.878023 65.3037109,14.2169195 65.2532617,14.5516322 C65.1986084,14.9491034 65.0963086,15.3368123 64.949165,15.7091801 C64.7753955,16.1289655 64.5441699,16.5236475 64.2610937,16.8792797 C63.9247656,17.287908 63.5127637,17.6268046 63.0461084,17.8764444 C62.4659424,18.1958161 61.842334,18.4342989 61.1963037,18.5863142 C60.3344629,18.7843525 59.4516016,18.8777931 58.5673389,18.8624521 L50.5795459,18.8624521 L50.5795459,0.103183697 L58.5673389,0.103183697 Z M58.5673389,8.33573946 C59.2021582,8.34829119 59.8341748,8.26461303 60.4437695,8.08749425 C60.9244385,7.94663602 61.372876,7.71512644 61.7666602,7.40551724 C62.105791,7.13356322 62.3762549,6.78629885 62.5584326,6.39301149 C62.7350049,6.00390805 62.8260937,5.58272797 62.8233538,5.15596935 C62.8233538,2.8074023 61.4009033,1.63311877 58.5575293,1.63311877 L52.3732959,1.63311877 L52.3732959,8.3371341 L58.5673389,8.3371341 L58.5673389,8.33573946 Z M58.5673389,17.3548506 C59.2063623,17.3576398 59.8439844,17.3018544 60.4717969,17.184705 C61.0351465,17.0884751 61.5732715,16.882069 62.0553418,16.5780383 C62.5149902,16.2795862 62.8891553,15.8667739 63.14,15.380046 C63.4230762,14.7942989 63.5590088,14.149977 63.5365869,13.5000766 C63.5365869,12.2867433 63.1091699,11.3774406 62.2543359,10.7707739 C61.399502,10.1641073 60.1705029,9.86147126 58.5673389,9.86147126 L52.3831055,9.86147126 L52.3831055,17.3534559 L58.5673389,17.3548506 Z" id="Shape" fill="#5E5F5E"></path>
                        <path d="M75.7957471,0.103203065 C76.5412744,0.104597701 77.283999,0.20640613 78.001499,0.40583908 C78.661543,0.580168582 79.2823486,0.880015326 79.8288818,1.28864368 C80.3557959,1.69029885 80.7818115,2.21049808 81.0718945,2.80461303 C81.394209,3.49077395 81.5525635,4.24248276 81.5343457,4.99977011 C81.5637744,6.10432184 81.2442627,7.1907433 80.6206543,8.10422989 C79.9662158,9.00377011 78.9810547,9.60904215 77.8781787,9.78755556 L77.8781787,9.83915709 C78.4120996,9.90191571 78.9292041,10.0664828 79.4014648,10.3244904 C79.795249,10.5518161 80.1329785,10.8614253 80.3922314,11.2337931 C80.6556885,11.6215019 80.8434717,12.0538391 80.9471729,12.5098851 C81.0662891,13.0245057 81.1419629,13.5474943 81.172793,14.0746667 C81.1910107,14.3898544 81.2078271,14.7761686 81.2246436,15.2322146 C81.24146,15.6882605 81.2764941,16.1484904 81.3311475,16.6115096 C81.3787939,17.0563985 81.462876,17.4957088 81.5805908,17.928046 C81.6632715,18.2780996 81.821626,18.6058391 82.043042,18.8889502 L80.0601074,18.8889502 C79.9437939,18.6881226 79.8597119,18.4691648 79.8106641,18.2432337 C79.7490039,17.9838314 79.7041602,17.7202452 79.6803369,17.4552644 C79.6537109,17.184705 79.6312891,16.9169349 79.6130713,16.651954 C79.5948535,16.3869732 79.5780371,16.1582529 79.5612207,15.9671877 C79.5261865,15.3005517 79.4701318,14.6380996 79.3902539,13.9812261 C79.3229883,13.3703755 79.1534229,12.7748659 78.8871631,12.2198008 C78.6391211,11.7107586 78.2551465,11.2784215 77.7786816,10.9702069 C77.173291,10.6271264 76.4768115,10.479295 75.7831348,10.5490268 L68.9528711,10.5490268 L68.9528711,18.8805824 L67.154917,18.8805824 L67.154917,0.103203065 L75.7957471,0.103203065 Z M75.6654199,9.02057324 C76.1951367,9.02329502 76.7220508,8.93961686 77.2251416,8.77226054 C77.7002051,8.6160613 78.138833,8.36921073 78.5200049,8.04704981 C78.8913672,7.73046743 79.1926611,7.34136398 79.4070703,6.90344828 C79.6340918,6.42369349 79.7462012,5.89652107 79.7363916,5.36655939 C79.7363916,4.20901149 79.4014648,3.29831418 78.7316113,2.6372567 C78.0617578,1.97619923 77.0401611,1.64288123 75.6668213,1.63730268 L68.964082,1.63730268 L68.964082,9.01771648 L75.6654199,9.02057324 Z" id="Shape" fill="#5E5F5E"></path>
                        <polygon id="Path" fill="#5E5F5E" points="86.1812793 0.103203065 86.1812793 18.8805824 84.3959375 18.8805824 84.3959375 0.103203065"></polygon>
                        <polygon id="Path" fill="#5E5F5E" points="90.489082 0.103203065 96.6186621 16.908567 96.6705127 16.908567 102.763657 0.103203065 104.668115 0.103203065 97.6612793 18.8805824 95.5746436 18.8805824 88.5972363 0.103203065"></polygon>
                        <polygon id="Path" fill="#5E5F5E" points="108.248608 0.103203065 108.248608 18.8805824 106.450654 18.8805824 106.450654 0.103203065"></polygon>
                        <polygon id="Path" fill="#5E5F5E" points="125.635371 0.103203065 125.635371 1.61917241 119.054551 1.61917241 119.054551 18.8805824 117.256597 18.8805824 117.256597 1.62893487 110.703804 1.62893487 110.703804 0.112965517"></polygon>
                        <polygon id="Path" fill="#5E5F5E" points="126.850356 0.103203065 128.96502 0.103203065 135.173076 9.62298851 141.367119 0.103203065 143.5 0.103203065 136.047529 11.1487203 136.047529 18.8805824 134.250977 18.8805824 134.250977 11.1487203"></polygon>
                        <g id="Page-1">
                            <g id="Brivity">
                                <polygon id="Shape_1_" fill="#F2714D" points="11.7378516 0.115754789 13.2247021 15.1792184 21.6693408 5.29543295 30.1672314 15.1792184 27.9895068 15.2322146 28.0427588 25.116 32.7695703 24.1648582 36.7004053 29.6625134 36.8587598 23.2667126 40.6830908 22.3155709 42.0648389 4.39728736"></polygon>
                                <polygon id="Path" fill="#59C4C4" points="21.6693408 5.29543295 13.2247021 15.1792184 13.1714502 15.2322146 13.2247021 15.2322146 15.4556787 15.2322146 15.4556787 27.6012414 15.4556787 27.7072337 28.1058203 25.1020536 28.0960107 31.6707893 12.7468359 29.3975326 8.02002441 34.5786054 8.07327637 28.6583755 0 27.1786667 0 6.29957088"></polygon>
                                <polygon id="Shape_3_" fill="#336E7B" points="12.3222217 5.71800766 21.6693408 5.29543295 13.1714502 15.1792184"></polygon>
                            </g>
                        </g>
                    </g>
                    <g id="MARKETER">
                        <use fill="#000000" xlink:href="#path-1"></use>
                        <use fill="#F2714D" xlink:href="#path-1"></use>
                    </g>
                </g>
            </g>
        </g>
    </g>
</svg>