<?xml version="1.0" encoding="UTF-8"?>
<svg width="18px" height="19px" viewBox="0 0 18 19" version="1.1" xmlns="http://www.w3.org/2000/svg" xmlns:xlink="http://www.w3.org/1999/xlink">
    <title>Group 2</title>
    <g id="Marketer-+-Ads" stroke="none" stroke-width="1" fill="none" fill-rule="evenodd">
        <g id="Nav-Expanded-Hover-Onboarding" transform="translate(-20.000000, -125.000000)" fill-rule="nonzero">
            <g id="Group-2" transform="translate(20.000000, 125.285696)">
                <path d="M8.57143879,17.1428776 C13.3035873,17.1428776 17.1428776,13.3035873 17.1428776,8.57143879 C17.1428776,3.83929029 13.3035873,0 8.57143879,0 C3.83929029,0 0,3.83929029 0,8.57143879 C0,13.3035873 3.83929029,17.1428776 8.57143879,17.1428776 Z" id="step2Path" fill="#666666"></path>
                <path d="M11.46875,12.7143044 L11.46875,11.1908669 L7.73632812,11.1908669 L7.73632812,11.1088357 L8.83789062,10.0717263 C9.57226562,9.39985132 10.0849609,8.8822732 10.3759766,8.51899195 C10.6669922,8.1557107 10.8818359,7.80121851 11.0205078,7.45551538 C11.1591797,7.10981226 11.2285156,6.73969507 11.2285156,6.34516382 C11.2285156,5.89203882 11.1152344,5.48969507 10.8886719,5.13813257 C10.6621094,4.78657007 10.34375,4.51313257 9.93359375,4.31782007 C9.5234375,4.12250757 9.05078125,4.02485132 8.515625,4.02485132 C8.109375,4.02485132 7.7421875,4.06489038 7.4140625,4.14496851 C7.0859375,4.22504663 6.78320312,4.33930445 6.50585938,4.48774195 C6.22851562,4.63617945 5.87890625,4.8900857 5.45703125,5.2494607 L5.45703125,5.2494607 L6.44140625,6.41547632 C6.78125,6.13422632 7.10742188,5.91742945 7.41992188,5.7650857 C7.73242188,5.61274195 8.0546875,5.53657007 8.38671875,5.53657007 C8.703125,5.53657007 8.95605469,5.62055445 9.14550781,5.7885232 C9.33496094,5.95649195 9.4296875,6.21235132 9.4296875,6.55610132 C9.4296875,6.78657007 9.38671875,7.00922632 9.30078125,7.22407007 C9.21484375,7.43891382 9.07421875,7.67231226 8.87890625,7.92426538 C8.68359375,8.17621851 8.26757812,8.62836695 7.63085938,9.2807107 L7.63085938,9.2807107 L5.48046875,11.4545388 L5.48046875,12.7143044 L11.46875,12.7143044 Z" id="2" fill="#FFFFFF"></path>
            </g>
        </g>
    </g>
</svg>