<?xml version="1.0" encoding="UTF-8"?>
<svg width="18px" height="18px" viewBox="0 0 18 18" version="1.1" xmlns="http://www.w3.org/2000/svg" xmlns:xlink="http://www.w3.org/1999/xlink">
    <title>Group 3</title>
    <g id="Marketer-+-Ads" stroke="none" stroke-width="1" fill="none" fill-rule="evenodd">
        <g id="Nav-Expanded-Hover-Onboarding" transform="translate(-20.000000, -183.000000)" fill-rule="nonzero">
            <g id="Group-3" transform="translate(20.000000, 183.000000)">
                <path d="M8.57143879,17.1428776 C13.3035873,17.1428776 17.1428776,13.3035873 17.1428776,8.57143879 C17.1428776,3.83929029 13.3035873,0 8.57143879,0 C3.83929029,0 0,3.83929029 0,8.57143879 C0,13.3035873 3.83929029,17.1428776 8.57143879,17.1428776 Z" id="step3Path" fill="#666666"></path>
                <path d="M8.47265625,12.8066406 C9.58203125,12.8066406 10.4355469,12.5771484 11.0332031,12.1181641 C11.6308594,11.6591797 11.9296875,11.0175781 11.9296875,10.1933594 C11.9296875,9.62695312 11.7519531,9.17675781 11.3964844,8.84277344 C11.0410156,8.50878906 10.5175781,8.29882812 9.82617188,8.21289062 L9.82617188,8.21289062 L9.82617188,8.17773438 C10.4121094,8.03710938 10.8671875,7.77929688 11.1914062,7.40429688 C11.515625,7.02929688 11.6777344,6.57421875 11.6777344,6.0390625 C11.6777344,5.3984375 11.4208984,4.8984375 10.9072266,4.5390625 C10.3935547,4.1796875 9.69335938,4 8.80664062,4 C7.72460938,4 6.79296875,4.28125 6.01171875,4.84375 L6.01171875,4.84375 L6.84960938,6.09179688 C7.20507812,5.86132812 7.52832031,5.69921875 7.81933594,5.60546875 C8.11035156,5.51171875 8.39648438,5.46484375 8.67773438,5.46484375 C9.49023438,5.46484375 9.89648438,5.7890625 9.89648438,6.4375 C9.89648438,6.859375 9.74316406,7.15722656 9.43652344,7.33105469 C9.12988281,7.50488281 8.64453125,7.59179688 7.98046875,7.59179688 L7.98046875,7.59179688 L7.31835938,7.59179688 L7.31835938,8.98046875 L7.96875,8.98046875 C8.6875,8.98046875 9.2109375,9.06445312 9.5390625,9.23242188 C9.8671875,9.40039062 10.03125,9.68554688 10.03125,10.0878906 C10.03125,10.5371094 9.88867188,10.8632812 9.60351562,11.0664062 C9.31835938,11.2695312 8.87695312,11.3710938 8.27929688,11.3710938 C7.88867188,11.3710938 7.49414062,11.3183594 7.09570312,11.2128906 C6.69726562,11.1074219 6.33203125,10.9707031 6,10.8027344 L6,10.8027344 L6,12.34375 C6.71875,12.6523438 7.54296875,12.8066406 8.47265625,12.8066406 Z" id="3" fill="#FFFFFF"></path>
            </g>
        </g>
    </g>
</svg>