<?xml version="1.0" encoding="UTF-8"?>
<svg width="18px" height="18px" viewBox="0 0 18 18" version="1.1" xmlns="http://www.w3.org/2000/svg" xmlns:xlink="http://www.w3.org/1999/xlink">
    <title>Group 4</title>
    <g id="Marketer-+-Ads" stroke="none" stroke-width="1" fill="none" fill-rule="evenodd">
        <g id="Nav-Expanded-Hover-Onboarding" transform="translate(-20.000000, -240.000000)" fill-rule="nonzero">
            <g id="Group-4" transform="translate(20.000000, 240.000000)">
                <path d="M8.57143879,17.1428776 C13.3035873,17.1428776 17.1428776,13.3035873 17.1428776,8.57143879 C17.1428776,3.83929029 13.3035873,0 8.57143879,0 C3.83929029,0 0,3.83929029 0,8.57143879 C0,13.3035873 3.83929029,17.1428776 8.57143879,17.1428776 Z" id="step4Path" fill="#666666"></path>
                <path d="M10.4257812,12.5664062 L10.4257812,10.7910156 L11.4570312,10.7910156 L11.4570312,9.38476562 L10.4257812,9.38476562 L10.4257812,4 L8.75585938,4 L5,9.53125 L5,10.7910156 L8.65625,10.7910156 L8.65625,12.5664062 L10.4257812,12.5664062 Z M8.65625,9.38476562 L6.59375,9.38476562 L8.1640625,7.01171875 C8.3671875,6.70703125 8.54101562,6.39453125 8.68554688,6.07421875 L8.68554688,6.07421875 L8.73242188,6.07421875 C8.72070312,6.1484375 8.70507812,6.41601562 8.68554688,6.87695312 C8.66601562,7.33789062 8.65625,7.68945312 8.65625,7.93164062 L8.65625,7.93164062 L8.65625,9.38476562 Z" id="4" fill="#FFFFFF"></path>
            </g>
        </g>
    </g>
</svg>