<?xml version="1.0" encoding="UTF-8"?>
<svg width="460px" height="270px" viewBox="0 0 460 270" version="1.1" xmlns="http://www.w3.org/2000/svg" xmlns:xlink="http://www.w3.org/1999/xlink">
    <title>undraw_small_town_rxs3</title>
    <g id="Page-1" stroke="none" stroke-width="1" fill="none" fill-rule="evenodd">
        <g id="Artboard" transform="translate(-519.000000, -224.000000)" fill-rule="nonzero">
            <g id="undraw_small_town_rxs3" transform="translate(519.000000, 224.000000)">
                <rect id="Rectangle" fill="#3F3D56" x="432.803137" y="160.760627" width="12.2249644" height="42.3171788"></rect>
                <polygon id="Path" fill="#3F3D56" points="453.359812 196.87275 422.929125 160.290563 363.684937 160.290563 327.480187 195.554813 328.212 196.025062 327.950437 196.025062 327.950437 269.3745 453.021187 269.3745 453.021187 196.025062"></polygon>
                <path d="M430.443298,146.901105 C430.4421,146.954391 430.439265,147.007243 430.439265,147.060788 C431.120293,149.117812 431.987861,151.108304 433.031147,153.007436 C432.521145,154.540647 432.265349,156.146952 432.273887,157.762738 C432.273887,163.335521 435.148695,167.85315 438.695055,167.85315 C442.241415,167.85315 445.116229,163.335521 445.116229,157.762738 C445.118868,156.555597 444.978388,155.3524 444.697729,154.178336 C446.962319,151.727776 447.286858,148.057281 445.487389,145.247383 C447.478711,146.987388 450.252274,147.521264 452.747232,146.644813 C455.242189,145.768362 457.072523,143.617187 457.538158,141.01408 C458.003793,138.410973 457.032686,135.758686 454.996271,134.071678 C458.485688,132.783966 460.4601,129.089494 459.591682,125.472854 C458.723264,121.856214 455.286621,119.46103 451.592951,119.898102 C447.89928,120.335173 445.116564,123.466293 445.116223,127.185733 C445.116223,127.293171 445.119806,127.399776 445.124284,127.506077 C443.085455,126.883283 440.876611,127.177259 439.071643,128.311626 C437.266676,129.445993 436.043772,131.308766 435.720662,133.415966 C433.219719,131.927932 430.075775,132.058289 427.706601,133.748252 C425.337427,135.438214 424.190682,138.368463 424.783494,141.217591 C425.376306,144.06672 427.596663,146.296382 430.443287,146.901105 L430.443298,146.901105 Z" id="Path" fill="#E2E2E2"></path>
                <polygon id="Path" fill="#59C4C4" points="423.399375 159.820312 386.254125 203.369063 386.254125 269.3745 453.021187 269.3745 453.021187 195.084563"></polygon>
                <rect id="Rectangle" fill="#3F3D56" x="413.055118" y="232.872547" width="13.6355456" height="12.0522431"></rect>
                <rect id="Rectangle" fill="#3F3D56" x="413.055118" y="212.011431" width="13.6355456" height="11.8611169"></rect>
                <rect id="Rectangle" fill="#FFFFFF" x="413.055118" y="232.872547" width="13.6355456" height="12.0522431"></rect>
                <rect id="Rectangle" fill="#FFFFFF" x="413.055118" y="212.011431" width="13.6355456" height="11.8611169"></rect>
                <polygon id="Path" fill="#3F3D56" points="256.484813 138.37275 202.555125 74.1465 96.526125 74.1465 31.730625 137.259 33.0395625 138.1005 32.5715625 138.1005 32.5715625 269.3745 256.411125 269.3745 256.411125 138.1005"></polygon>
                <rect id="Rectangle" fill="#3F3D56" x="211.813436" y="68.1330263" width="12.2249644" height="42.3171788"></rect>
                <rect id="Rectangle" fill="#3F3D56" x="335.473633" y="118.443448" width="12.2249644" height="42.3171788"></rect>
                <rect id="Rectangle" fill="#3F3D56" x="335.473633" y="114.211733" width="12.2249644" height="42.3171788"></rect>
                <polygon id="Path" fill="#3F3D56" points="366.172312 168.18525 324.44325 118.622812 242.569688 118.622812 192.535875 167.35725 193.546125 168.006937 193.185563 168.006937 193.185563 269.3745 366.03 269.3745 366.03 168.006937"></polygon>
                <polygon id="Path" fill="#59C4C4" points="325.092938 117.973125 273.75975 178.156125 273.75975 269.3745 366.03 269.3745 366.03 166.707562"></polygon>
                <polygon id="Path" fill="#59C4C4" points="203.396625 73.305 136.918125 151.243875 136.918125 269.3745 256.411125 269.3745 256.411125 136.4175"></polygon>
                <path d="M83.1253219,267.224001 C83.1253219,267.224001 83.4176363,261.098938 89.4100894,261.8109" id="Path" fill="#E6E6E6"></path>
                <circle id="Oval" fill="#59C4C4" cx="81.4321294" cy="258.396069" r="2.99917688"></circle>
                <rect id="Rectangle" fill="#E6E6E6" x="80.9441213" y="263.446509" width="1" height="5.92617938"></rect>
                <path d="M109.926202,267.224001 C109.926202,267.224001 110.218517,261.098938 116.210964,261.8109" id="Path" fill="#E6E6E6"></path>
                <circle id="Oval" fill="#59C4C4" cx="108.23301" cy="258.396069" r="2.99917688"></circle>
                <rect id="Rectangle" fill="#E6E6E6" x="107.745002" y="263.446509" width="1" height="5.92617938"></rect>
                <path d="M263.678614,267.224001 C263.678614,267.224001 263.970928,261.098938 269.963376,261.8109" id="Path" fill="#E6E6E6"></path>
                <circle id="Oval" fill="#59C4C4" cx="261.985421" cy="258.396069" r="2.99917688"></circle>
                <rect id="Rectangle" fill="#E6E6E6" x="261.497408" y="263.446509" width="1" height="5.92617938"></rect>
                <path d="M376.994627,267.224001 C376.994627,267.224001 377.286941,261.098938 383.279394,261.8109" id="Path" fill="#E6E6E6"></path>
                <circle id="Oval" fill="#59C4C4" cx="375.301417" cy="258.396069" r="2.99917688"></circle>
                <rect id="Rectangle" fill="#E6E6E6" x="374.813409" y="263.446509" width="1" height="5.92617938"></rect>
                <path d="M46.4504344,267.224001 C46.4504344,267.224001 46.7427487,261.098938 52.7352019,261.8109" id="Path" fill="#E6E6E6"></path>
                <circle id="Oval" fill="#59C4C4" cx="44.7572419" cy="258.396069" r="2.99917688"></circle>
                <rect id="Rectangle" fill="#E6E6E6" x="44.2692337" y="263.446509" width="1" height="5.92617938"></rect>
                <path d="M332.898846,96.6651469 C332.897479,96.7261894 332.894227,96.7867369 332.894227,96.8480719 C332.8919,99.1195657 333.81179,101.294695 335.443202,102.875259 C335.569296,103.144239 335.709572,103.406338 335.86344,103.660453 C335.279195,105.416875 334.98616,107.257029 334.995941,109.108046 C334.995941,115.49214 338.289272,120.667461 342.351928,120.667461 C346.414584,120.667461 349.707921,115.49214 349.707921,109.108046 C349.71095,107.72516 349.55002,106.346791 349.228502,105.001796 C351.822777,102.194471 352.194563,97.98961 350.13312,94.7706356 C352.414342,96.7639963 355.591713,97.3756246 358.449921,96.3715791 C361.308129,95.3675335 363.404947,92.9031619 363.938364,89.9210608 C364.471781,86.9389597 363.359265,83.9005254 361.026343,81.9679275 C365.02377,80.4927487 367.285631,76.2604178 366.290787,72.1172475 C365.295943,67.9740771 361.358976,65.2301877 357.127561,65.7308903 C352.896146,66.2315928 349.708308,69.8185591 349.707921,74.079495 C349.707921,74.2025756 349.712027,74.3247 349.717157,74.4464756 C347.381511,73.7330127 344.851097,74.0697839 342.783356,75.3692912 C340.715615,76.6687984 339.314674,78.8027546 338.944517,81.2167256 C336.079477,79.5120666 332.477829,79.6614071 329.763747,81.5974016 C327.049665,83.5333962 325.735975,86.8902378 326.41509,90.1541496 C327.094204,93.4180615 329.637804,95.9723259 332.898846,96.6650906 L332.898846,96.6651469 Z" id="Path" fill="#E2E2E2"></path>
                <polygon id="Path" fill="#E2E2E2" points="77.1035625 130.417875 66.5775 144.981563 65.559375 116.09775 64.3005 158.743688 54.6001875 145.322438 64.2133125 161.691188 61.0295625 269.528062 70.966125 269.528062 66.688875 148.150688"></polygon>
                <polygon id="Path" fill="#F2F2F2" points="29.8535625 87.2645625 16.0621875 106.345687 14.7285 68.5018125 13.0786875 124.377188 0.3695625 106.792875 12.9650625 128.23875 8.7935625 269.528063 21.8120625 269.528063 16.2084375 110.498063"></polygon>
                <path d="M414.104243,0.170510625 C411.555929,0.172526895 409.013464,0.414424582 406.510493,0.8930025 C425.56283,4.53541039 439.341757,21.198126 439.341757,40.5955153 C439.341757,59.9929046 425.56283,76.6556202 406.510493,80.2980281 C421.592995,83.183197 437.007851,77.2734615 446.296119,65.0450455 C455.584387,52.8166295 457.141967,36.3814023 450.316221,22.625848 C443.490474,8.87029379 429.460221,0.170510625 414.104243,0.170510625 Z" id="Path" fill="#E2E2E2"></path>
                <path d="M207.125347,44.9297325 C207.123744,45.0013781 207.119925,45.0724444 207.119925,45.1444444 C207.11719,47.8106509 208.196928,50.3637481 210.111829,52.2189619 C210.259831,52.5346803 210.424483,52.8423222 210.605091,53.14059 C209.919319,55.2022156 209.575362,57.3621262 209.586842,59.5347862 C209.586842,67.0282087 213.452443,73.1028487 218.221048,73.1028487 C222.989653,73.1028487 226.855254,67.0282312 226.855254,59.5347862 C226.858807,57.9116092 226.669913,56.2937344 226.292529,54.7150331 C229.337595,51.4198925 229.773985,46.4843788 227.354344,42.7060575 C230.032062,45.0450004 233.761114,45.7623434 237.115483,44.5837694 C240.469853,43.4051953 242.930678,40.5130086 243.556924,37.0132019 C244.183169,33.5133952 242.877965,29.9473259 240.14043,27.6786844 C244.832464,25.9471668 247.487351,20.9794068 246.319636,16.1163026 C245.151922,11.2531985 240.53085,8.03252093 235.564167,8.62022731 C230.597484,9.20793369 226.855713,13.4181844 226.855254,18.4195181 C226.855254,18.5639906 226.860075,18.7073325 226.866099,18.8502694 C224.124594,18.0128292 221.154477,18.4081223 218.727432,19.9334452 C216.300387,21.458768 214.656013,23.9635405 214.221544,26.7969825 C210.858659,24.7961017 206.631162,24.9713861 203.44546,27.2437905 C200.259757,29.516195 198.717791,33.4563463 199.514917,37.2874182 C200.312042,41.1184901 203.297642,44.1165975 207.125347,44.9297325 L207.125347,44.9297325 Z" id="Path" fill="#E2E2E2"></path>
                <rect id="Rectangle" fill="#3F3D56" x="152.280647" y="166.711674" width="24.4035169" height="24.9524944"></rect>
                <rect id="Rectangle" fill="#3F3D56" x="152.280647" y="200.664169" width="24.4035169" height="24.9525281"></rect>
                <rect id="Rectangle" fill="#FFFFFF" x="152.280647" y="166.711674" width="24.4035169" height="24.9524944"></rect>
                <rect id="Rectangle" fill="#FFFFFF" x="152.280647" y="200.664169" width="24.4035169" height="24.9525281"></rect>
                <rect id="Rectangle" fill="#3F3D56" x="186.030647" y="166.711674" width="24.4035169" height="24.9524944"></rect>
                <rect id="Rectangle" fill="#3F3D56" x="186.030647" y="200.664169" width="24.4035169" height="24.9525281"></rect>
                <rect id="Rectangle" fill="#FFFFFF" x="186.030647" y="166.711674" width="24.4035169" height="24.9524944"></rect>
                <rect id="Rectangle" fill="#FFFFFF" x="186.030647" y="200.664169" width="24.4035169" height="24.9525281"></rect>
                <rect id="Rectangle" fill="#3F3D56" x="219.780647" y="166.711674" width="24.4035169" height="24.9524944"></rect>
                <rect id="Rectangle" fill="#3F3D56" x="219.780647" y="200.664169" width="24.4035169" height="24.9525281"></rect>
                <rect id="Rectangle" fill="#FFFFFF" x="219.780647" y="166.711674" width="24.4035169" height="24.9524944"></rect>
                <rect id="Rectangle" fill="#FFFFFF" x="219.780647" y="200.664169" width="24.4035169" height="24.9525281"></rect>
                <rect id="Rectangle" fill="#3F3D56" x="297.791027" y="217.342823" width="18.8439581" height="18.24273"></rect>
                <rect id="Rectangle" fill="#3F3D56" x="297.791027" y="190.100126" width="18.8439581" height="18.2426963"></rect>
                <rect id="Rectangle" fill="#FFFFFF" x="297.791027" y="217.342823" width="18.8439581" height="18.24273"></rect>
                <rect id="Rectangle" fill="#FFFFFF" x="297.791027" y="190.100126" width="18.8439581" height="18.2426963"></rect>
                <rect id="Rectangle" fill="#3F3D56" x="325.353527" y="217.342823" width="18.8439581" height="18.24273"></rect>
                <rect id="Rectangle" fill="#3F3D56" x="325.353527" y="190.100126" width="18.8439581" height="18.2426963"></rect>
                <rect id="Rectangle" fill="#FFFFFF" x="325.353527" y="217.342823" width="18.8439581" height="18.24273"></rect>
                <rect id="Rectangle" fill="#FFFFFF" x="325.353527" y="190.100126" width="18.8439581" height="18.2426963"></rect>
            </g>
        </g>
    </g>
</svg>